<svg xmlns="http://www.w3.org/2000/svg" viewBox="0 0 489.86 347.76"><g data-name="Layer 2" fill="#000000" class="color000000 svgShape"><g data-name="Layer 1" fill="#000000" class="color000000 svgShape"><path fill="none" stroke="#00cbf8" stroke-linecap="round" stroke-linejoin="round" d="M58.53 35.51h64.81v45.64H58.53z" transform="rotate(164.38 90.931 58.329)" class="colorStroke008ef8 svgStroke"></path><circle cx="54.38" cy="80.06" r="28.98" fill="#c1edf7" class="colorc1e3f7 svgShape"></circle><path fill="none" stroke="#545454" stroke-linecap="round" stroke-linejoin="round" d="M.5 232.25h488.86" class="colorStroke545454 svgStroke"></path><path fill="#9fff52" d="M474.3 302.59H349.68v-22.42l-26.94.15.12-25.06 24.5-.03v-24.88h24.56l.62-23.85 23.95-.06-.22-23.62 34.21-.11.23-22.01h43.59v141.89z" class="colorffcd52 svgShape"></path><rect width="97.06" height="98.1" x="329.82" y="26.9" fill="#c1edf7" rx="13" transform="rotate(45 378.34 75.953)" class="colorc1e3f7 svgShape"></rect><rect width="114.32" height="114.32" x="321.18" y="18.79" fill="none" stroke="#00cbf8" stroke-linecap="round" stroke-linejoin="round" rx="13" transform="rotate(45 378.34 75.953)" class="colorStroke008ef8 svgStroke"></rect><path fill="#ff2e21" d="M60 153.72 29.36 250.8h67.08l-30.68-97.08a3 3 0 0 0-5.76 0Z" class="colorff8721 svgShape"></path><path fill="#9fff52" d="M22.56 250.8h80.69v16.08H22.56zM50.51 183.87h24.78l-3.08-9.76H53.6l-3.09 9.76zM39.05 220.12h47.7l-3.09-9.76H42.14l-3.09 9.76z" class="colorffcd52 svgShape"></path><ellipse cx="156.29" cy="310.32" fill="#9ae45f" rx="127.08" ry="37.44" class="colora5a5a5 svgShape"></ellipse><path fill="#777777" d="M29.55 313.05c3.7-2.81 7.47-5.52 11.25-8.22s7.61-5.33 11.4-8 7.67-5.24 11.54-7.81l5.81-3.83c2-1.25 3.9-2.53 5.88-3.75-1.85 1.41-3.73 2.76-5.6 4.15l-5.65 4.07c-3.78 2.7-7.61 5.33-11.41 8s-7.66 5.24-11.53 7.81-7.75 5.11-11.69 7.58ZM101.5 276.53c-5.36 4-10.78 7.87-16.21 11.74S74.38 296 68.93 299.8l-16.49 11.33-8.29 5.6c-2.78 1.84-5.55 3.7-8.35 5.52 2.67-2 5.38-3.95 8.07-5.92L52 310.5 68.36 299c5.5-3.78 11-7.6 16.49-11.34s11.06-7.49 16.65-11.13ZM126.94 273.89c-6.46 4.83-13 9.58-19.52 14.31l-19.68 14.1-19.81 13.92L58 323.1l-10 6.81 9.73-7.21 9.79-7.11 19.67-14.1L107 287.58c6.6-4.58 13.24-9.19 19.94-13.69ZM148.3 273q-10.78 8-21.71 15.81l-21.85 15.59-22 15.41-11 7.64L60.6 335l10.82-8 10.88-7.87 21.86-15.59 22-15.41C133.51 283 140.87 278 148.3 273ZM168.33 273.05c-7.67 5.67-15.4 11.25-23.14 16.81l-23.29 16.6-23.42 16.42L86.72 331l-11.82 8.07 11.54-8.46L98 322.25l23.3-16.6 23.42-16.41c7.86-5.44 15.7-10.86 23.61-16.19ZM187.18 274c-7.94 5.86-16 11.64-24 17.4l-24.11 17.18-24.25 17-12.13 8.42-12.23 8.35 12-8.75 12-8.65 24.11-17.19 24.25-17c8.06-5.62 16.18-11.24 24.36-16.76ZM207.34 276c-8 5.92-16.13 11.76-24.23 17.59L158.73 311l-24.52 17.18-12.31 8.52-12.36 8.44 12.08-8.84 12.15-8.75 24.38-17.38L182.67 293c8.19-5.7 16.4-11.38 24.67-17ZM131.1 347c7.88-5.82 15.83-11.55 23.78-17.26l23.94-17.05 24.07-16.85L215 287.5l12.15-8.27-11.86 8.67-11.92 8.59-23.94 17-24.08 16.85c-8 5.59-16.1 11.16-24.22 16.64ZM247.52 284.25c-7.38 5.46-14.83 10.83-22.28 16.19l-22.43 16-22.56 15.78-11.33 7.78-11.39 7.74 11.11-8.14 11.16-8.06 22.44-16 22.56-15.78c7.55-5.18 15.1-10.39 22.72-15.51ZM264.06 290.47c-6.53 4.86-13.13 9.64-19.73 14.4l-19.88 14.19-20 14-10.08 6.94-10.11 6.85 9.83-7.25 9.9-7.16 19.88-14.19 20-14c6.71-4.63 13.42-9.25 20.19-13.78ZM277.19 298.76c-5.17 3.91-10.4 7.74-15.64 11.55s-10.52 7.55-15.78 11.33l-15.92 11.15-8 5.51c-2.69 1.8-5.36 3.64-8.07 5.42 2.58-2 5.19-3.88 7.78-5.82l7.85-5.74 15.79-11.33c5.31-3.71 10.59-7.47 15.92-11.15s10.66-7.34 16.07-10.92ZM282.89 311c-2.83 2.27-5.72 4.45-8.62 6.62s-5.84 4.29-8.78 6.41-5.91 4.19-8.91 6.22l-4.5 3c-1.52 1-3 2-4.56 3 1.41-1.15 2.85-2.24 4.28-3.36l4.34-3.27c2.89-2.18 5.83-4.29 8.77-6.4s5.91-4.19 8.91-6.22 6-4.11 9.07-6Z" class="color777777 svgShape"></path><path fill="#d85b53" d="M29.89 142.88a79.59 79.59 0 0 1 1.2 7.89c.3 2.64.49 5.28.65 7.92s.26 5.31.26 7.94a78.83 78.83 0 0 1-.35 8 79 79 0 0 1-1.21-7.88c-.3-2.64-.48-5.28-.64-7.92s-.23-5.29-.21-7.94.03-5.34.3-8.01Z" class="colorf46534 svgShape"></path><path fill="#d85b53" d="M46.6 157.89a79 79 0 0 1-7.88 1.2c-2.64.3-5.28.49-7.92.65s-5.29.23-7.94.21a79 79 0 0 1-8-.35 79.63 79.63 0 0 1 7.89-1.21c2.64-.3 5.28-.48 7.92-.64s5.29-.23 7.94-.21a78.83 78.83 0 0 1 7.99.35ZM10.86 176.14a37.57 37.57 0 0 1 1.07 5.29c.24 1.78.41 3.55.51 5.33s.11 3.56.06 5.35a36.35 36.35 0 0 1-.49 5.38A36.16 36.16 0 0 1 11 192.2c-.24-1.78-.42-3.55-.51-5.33s-.12-3.56-.07-5.35a39.26 39.26 0 0 1 .44-5.38Z" class="colorf46534 svgShape"></path><path fill="#d85b53" d="M22.12 186.24a36.56 36.56 0 0 1-5.3 1.06c-1.77.25-3.55.42-5.33.51s-3.56.12-5.35.07a36.35 36.35 0 0 1-5.38-.49 37.7 37.7 0 0 1 5.3-1.07c1.77-.24 3.54-.41 5.32-.5s3.57-.12 5.36-.07a36.6 36.6 0 0 1 5.38.49ZM359.32 170.19a78.7 78.7 0 0 1 1.2 7.89c.31 2.63.49 5.27.65 7.91s.23 5.29.21 7.95a79 79 0 0 1-.35 8 78.74 78.74 0 0 1-1.21-7.89c-.3-2.63-.48-5.28-.64-7.92s-.23-5.29-.21-7.94.08-5.34.35-8Z" class="colorf46534 svgShape"></path><path fill="#d85b53" d="M376 185.19a79 79 0 0 1-7.88 1.21c-2.64.3-5.28.48-7.92.65s-5.29.22-7.94.2a76.32 76.32 0 0 1-8-.35 76.75 76.75 0 0 1 7.89-1.2c2.64-.3 5.28-.49 7.92-.65s5.29-.22 7.94-.2a78.81 78.81 0 0 1 7.99.34ZM340.29 203.44a38 38 0 0 1 1.07 5.3c.24 1.77.41 3.55.51 5.33s.11 3.56.07 5.35a37.91 37.91 0 0 1-.5 5.38 36.56 36.56 0 0 1-1.06-5.3c-.24-1.77-.42-3.55-.51-5.33s-.12-3.56-.07-5.35a39.26 39.26 0 0 1 .49-5.38Z" class="colorf46534 svgShape"></path><path fill="#d85b53" d="M351.55 213.54a36.6 36.6 0 0 1-5.3 1.07c-1.77.24-3.55.41-5.33.51s-3.56.12-5.35.07a36.37 36.37 0 0 1-5.38-.5 36.56 36.56 0 0 1 5.3-1.06c1.77-.24 3.54-.42 5.32-.51s3.57-.11 5.36-.06a38 38 0 0 1 5.38.48ZM169.77 32a47.47 47.47 0 0 1-6.1 1.06c-2 .24-4.09.41-6.13.5s-4.1.11-6.16.06a47.63 47.63 0 0 1-6.17-.49 47.51 47.51 0 0 1 6.1-1.07c2-.23 4.09-.41 6.13-.5s4.1-.11 6.16-.05a47.63 47.63 0 0 1 6.17.49Z" class="colorf46534 svgShape"></path><path fill="#d85b53" d="M158.05 44.82a51.73 51.73 0 0 1-1.05-6.11q-.36-3.06-.5-6.13c-.1-2-.11-4.1-.06-6.15a47.81 47.81 0 0 1 .5-6.18 47.62 47.62 0 0 1 1.06 6.11q.36 3.06.5 6.13c.09 2 .11 4.1.06 6.15a49.8 49.8 0 0 1-.51 6.18ZM178.61 42.07a36.27 36.27 0 0 1 1.09 5.29c.25 1.77.44 3.54.54 5.32s.14 3.57.1 5.35a36.54 36.54 0 0 1-.46 5.39 38 38 0 0 1-1.1-5.29c-.25-1.77-.43-3.55-.53-5.33s-.14-3.56-.1-5.35a36.29 36.29 0 0 1 .46-5.38Z" class="colorf46534 svgShape"></path><path fill="#d85b53" d="M189.92 52.11a37.64 37.64 0 0 1-5.29 1.09c-1.77.25-3.55.44-5.33.54s-3.56.14-5.35.1a36.41 36.41 0 0 1-5.38-.46 37.67 37.67 0 0 1 5.29-1.1c1.77-.25 3.55-.43 5.32-.53s3.57-.14 5.36-.1a36.41 36.41 0 0 1 5.38.46Z" class="colorf46534 svgShape"></path><path fill="#d6f4be" d="m24.26 25.66 10.26 36.7a29.71 29.71 0 0 1-2.89-2.63L23.15 29.4a28 28 0 0 1 1.11-3.74ZM22.31 36.09l5.15 18.43a32.38 32.38 0 0 1-5.15-18.43ZM27 19.89l12.85 46c-.88-.47-1.75-1-2.57-1.52L25.6 22.47a22.38 22.38 0 0 1 1.4-2.58ZM30.32 15.4 45 68a20.28 20.28 0 0 1-2.4-.86L28.72 17.38a20.94 20.94 0 0 1 1.6-1.98ZM33.88 11.89l16 57.26a20.92 20.92 0 0 1-2.28-.46L32.17 13.44c.06-.08.15-.15.23-.24.48-.45.98-.89 1.48-1.31ZM37.57 9.2l16.87 60.34c-.74 0-1.46-.05-2.19-.12l-16.5-59a18.05 18.05 0 0 1 1.82-1.22ZM41.38 7.12l17.39 62.2c-.71.09-1.4.15-2.11.18L39.49 8.08a21 21 0 0 1 1.89-.96ZM45.48 5.56l17.61 63a18.41 18.41 0 0 1-2 .44L43.52 6.22c.64-.22 1.31-.47 1.96-.66ZM49.77 4.58l17.5 62.58c-.64.26-1.28.5-2 .71L47.73 5a16.69 16.69 0 0 1 2.04-.42ZM54.26 4.16l17.06 61c-.61.37-1.25.7-1.87 1L52.14 4.26c.7-.04 1.41-.09 2.12-.1ZM58.87 4.38l16.27 58.21a22 22 0 0 1-1.78 1.31L56.66 4.2a20.57 20.57 0 0 1 2.21.18ZM63.7 5.34l15.08 53.93c-.4.43-.8.84-1.21 1.24a6.42 6.42 0 0 1-.48.43L61.39 4.78a22.14 22.14 0 0 1 2.31.56ZM68.64 7.14l13.43 48a23.11 23.11 0 0 1-1.56 2.12L66.2 6.12a20.64 20.64 0 0 1 2.44 1.02ZM73.87 10.16 85 49.89a23.18 23.18 0 0 1-1.38 2.78L71.24 8.46a26.19 26.19 0 0 1 2.63 1.7ZM80 15.71l7.33 26.22a28 28 0 0 1-1 4.27l-9.4-33.62c.57.53 1.16 1.09 1.71 1.67s.89.98 1.36 1.46ZM87.59 34.59 84 21.77a32.42 32.42 0 0 1 3.59 12.82Z" class="colorf4d8be svgShape"></path><path fill="#ff2e21" d="M351.55 281.59h45.4v21h-45.4zM400.86 281.59h45.4v21h-45.4zM478 302.6h-28.49v-21H478v4a12.38 12.38 0 0 1-1.06 5 12.37 12.37 0 0 0 .68 11.33ZM324.85 257.15h45.4v21h-45.4zM373.69 257.15h45.4v21h-45.4zM422.81 256.66h45.4v21h-45.4zM349.68 232.46h45.4v21h-45.4zM374.25 208.21h45.4v21h-45.4zM398.07 184.45h45.4v21h-45.4zM478 205.46h-31.7v-21H478V189a11.72 11.72 0 0 1-.87 4.42l-.37.93a11.72 11.72 0 0 0 1.24 11.11ZM477.89 181.7h-45.4v-21h45.4l-1.89 4.48a9.07 9.07 0 0 0 .64 8.14 8.2 8.2 0 0 1 1.21 4.29ZM422.25 208.21h45.4v21h-45.4zM478 229.21h-7.88v-21H478l1.15 3.53a9.61 9.61 0 0 1-.34 6.88 9.73 9.73 0 0 0-.81 3.87ZM478 277.66h-7.29v-21H478l-.45 1.6a20.52 20.52 0 0 0-.16 10.58 20.89 20.89 0 0 1 .61 5ZM398.81 231.97h45.4v21h-45.4zM478 253h-30.49v-21H478v4.62a14 14 0 0 0 .84 4.79 14 14 0 0 1-.34 10.45Z" class="colorff8721 svgShape"></path><path fill="#d45985" d="m202.45 114-59.07 39.91-25.67-2.31.15-36.74c19.88-30.24 64.14-30.68 84.59-.86Z" class="color898989 svgShape"></path><rect width="20.65" height="8.74" x="285.02" y="107.59" fill="#08c3ec" rx="2" class="color0850ec svgShape"></rect><path fill="#00cbf8" d="m88.01 111.96 45.65 63.18h75.53l7.76-63.18H88.01z" class="color008ef8 svgShape"></path><path fill="none" stroke="#08c3ec" stroke-linecap="round" stroke-linejoin="round" stroke-width="2" d="m88.01 111.96 45.65 63.18h75.53l58.29-63.18h32.47M133.66 175.14 184 226.59a15.11 15.11 0 0 0 10.92 4.66h0A15.13 15.13 0 0 0 210 215.83l-.81-40.69" class="colorStroke0850ec svgStroke"></path><circle cx="137.37" cy="203.58" r="28.44" fill="#545454" class="color545454 svgShape"></circle><circle cx="137.37" cy="203.58" r="23.32" fill="#9fff52" class="colorffcd52 svgShape"></circle><circle cx="137.37" cy="203.58" r="10.47" fill="#545454" class="color545454 svgShape"></circle><path fill="none" stroke="#08c3ec" stroke-linecap="round" stroke-linejoin="round" stroke-width="2" d="M81.36 111.96h143.06" class="colorStroke0850ec svgStroke"></path><path fill="#d45985" d="M286.84 86.6h6.72v136.8h-6.72z" transform="rotate(-4.92 290.085 154.945)" class="color898989 svgShape"></path><path fill="none" stroke="#26d7fe" stroke-linecap="round" stroke-linejoin="round" d="M283.55 75.62h0a8.46 8.46 0 0 1 8.45 8.46v2.82h0-16.91 0v-2.82a8.46 8.46 0 0 1 8.46-8.46Z" transform="rotate(-4.92 283.46 81.204)" class="colorStroke489ee0 svgStroke"></path><path fill="#00cbf8" d="M273.91 223h49.44v18.48a24.72 24.72 0 0 1-24.72 24.72 24.72 24.72 0 0 1-24.72-24.72V223Z" transform="rotate(-4.92 298.597 244.509)" class="color008ef8 svgShape"></path><path fill="#029ec1" d="M323 239.38 321.41 221l-4 .34 1.59 18.04a24.72 24.72 0 0 1-22.51 26.75h-.12a24.64 24.64 0 0 0 4.12 0A24.72 24.72 0 0 0 323 239.38Z" class="color0234c1 svgShape"></path><path fill="#545454" d="m287.38 161.43 5.93-9.45-.96-11.12-5.93 9.45.96 11.12z" class="color545454 svgShape"></path><path fill="#00cbf8" d="M200.76 228.92h49.44v18.48a24.72 24.72 0 0 1-24.72 24.72 24.72 24.72 0 0 1-24.72-24.72v-18.48Z" transform="rotate(32.12 225.472 250.498)" class="color008ef8 svgShape"></path><path fill="#029ec1" d="M254.85 243.46 245.08 259a24.72 24.72 0 0 1-33.15 8.35c.66.51 1.35 1 2.07 1.45a24.72 24.72 0 0 0 34.08-7.8l9.82-15.65Z" class="color0234c1 svgShape"></path><path fill="#d45985" d="M269.36 105.51h6.72v136.8h-6.72z" transform="rotate(32.12 272.707 173.894)" class="color898989 svgShape"></path><path fill="none" stroke="#26d7fe" stroke-linecap="round" stroke-linejoin="round" d="M311.83 105.41h0a8.46 8.46 0 0 1 8.46 8.46v2.82h0-16.92 0v-2.82a8.46 8.46 0 0 1 8.46-8.46Z" transform="rotate(32.12 311.805 111.03)" class="colorStroke489ee0 svgStroke"></path></g></g></svg>